<?xml version="1.0" encoding="iso-8859-1"?>
<!-- Uploaded to: SVG Repo, www.svgrepo.com, Generator: SVG Repo Mixer Tools -->
<svg version="1.1" id="Layer_1" xmlns="http://www.w3.org/2000/svg" xmlns:xlink="http://www.w3.org/1999/xlink" 
	 viewBox="-54 -54 600 600" xml:space="preserve">
<path style="fill:#3A556A;" d="M486.444,48.545l-43.47-43.47C439.725,1.826,435.319,0,430.724,0H17.325C7.756,0,0,7.756,0,17.325
	v456.869c0,9.569,7.756,17.325,17.325,17.325h456.869c9.57,0,17.326-7.756,17.326-17.325V60.796
	C491.52,56.201,489.693,51.795,486.444,48.545z"/>
<path style="fill:#64798A;" d="M486.444,48.545l-43.47-43.47C439.725,1.826,435.319,0,430.724,0H17.325C7.756,0,0,7.756,0,17.325
	v438.996c0,9.569,7.756,17.325,17.325,17.325h456.869c9.57,0,17.326-7.756,17.326-17.325V60.796
	C491.52,56.201,489.693,51.795,486.444,48.545z"/>
<circle style="fill:#3A556A;" cx="245.76" cy="281.395" r="91.781"/>
<path style="fill:#D5D6DB;" d="M110.083,12.098V141.32c0,7.572,6.136,13.706,13.704,13.706h243.946
	c7.569,0,13.703-6.135,13.703-13.706V12.098H110.083z"/>
<path style="fill:#EBF0F3;" d="M110.083,0v129.222c0,7.572,6.136,13.706,13.704,13.706h243.946c7.569,0,13.703-6.135,13.703-13.706
	V0H110.083z"/>
<rect x="314.829" y="22.723" style="fill:#64798A;" width="35.395" height="97.485"/>
<circle style="fill:#EBF0F3;" cx="245.76" cy="281.395" r="84.362"/>
<g>
	<path style="fill:#64798A;" d="M252.074,269.819h-12.631c-2.904,0-5.26,2.356-5.26,5.262v12.631c0,2.903,2.356,5.26,5.26,5.26
		h12.631c2.906,0,5.263-2.357,5.263-5.26v-12.631C257.337,272.175,254.98,269.819,252.074,269.819z"/>
	<path style="fill:#64798A;" d="M306.566,256.71h-17.182c-3.95,0-7.156,3.206-7.156,7.159v35.056c0,3.95,3.206,7.155,7.156,7.155
		h17.182c3.954,0,7.159-3.206,7.159-7.155v-35.056C313.726,259.916,310.52,256.71,306.566,256.71z"/>
</g>
<path style="fill:#3A556A;" d="M95.013,409.074h-61.8c-3.113,0-5.637,2.524-5.637,5.635v30.066c0,3.113,2.524,5.637,5.637,5.637
	h61.8c3.114,0,5.639-2.524,5.639-5.637v-30.066C100.652,411.598,98.127,409.074,95.013,409.074z"/>
<path style="fill:#2F4859;" d="M64.114,445.94c-0.647,0-1.17-0.524-1.17-1.17v-30.057c0-0.645,0.524-1.169,1.17-1.169h30.899
	c0.645,0,1.169,0.524,1.169,1.169v30.057c0,0.646-0.524,1.17-1.169,1.17H64.114z"/>
</svg>