<?xml version="1.0" encoding="UTF-8" standalone="no"?>
<!-- Uploaded to: SVG Repo, www.svgrepo.com, Generator: SVG Repo Mixer Tools -->

<svg
   version="1.1"
   id="Layer_1"
   viewBox="0 0 491.52 491.52"
   xml:space="preserve"
   sodipodi:docname="save-all.svg"
   inkscape:version="1.2.2 (732a01da63, 2022-12-09)"
   xmlns:inkscape="http://www.inkscape.org/namespaces/inkscape"
   xmlns:sodipodi="http://sodipodi.sourceforge.net/DTD/sodipodi-0.dtd"
   xmlns="http://www.w3.org/2000/svg"
   xmlns:svg="http://www.w3.org/2000/svg"><defs
   id="defs188" /><sodipodi:namedview
   id="namedview186"
   pagecolor="#505050"
   bordercolor="#ffffff"
   borderopacity="1"
   inkscape:showpageshadow="0"
   inkscape:pageopacity="0"
   inkscape:pagecheckerboard="1"
   inkscape:deskcolor="#505050"
   showgrid="false"
   inkscape:zoom="1.0947841"
   inkscape:cx="242.97029"
   inkscape:cy="331.11553"
   inkscape:window-width="1920"
   inkscape:window-height="1009"
   inkscape:window-x="1072"
   inkscape:window-y="688"
   inkscape:window-maximized="1"
   inkscape:current-layer="Layer_1" />
<path
   style="fill:#aaaaaa;fill-opacity:1;stroke-width:0.999995"
   d="M 462.6113,76.177723 427.88445,42.446379 c -2.59552,-2.521123 -6.11534,-3.938045 -9.78615,-3.938045 H 87.846586 c -7.644385,0 -13.840412,6.018415 -13.840412,13.443654 V 406.46795 c 0,7.42526 6.196027,13.44365 13.840412,13.44365 H 452.82515 c 7.64518,0 13.8412,-6.0184 13.8412,-13.44365 V 85.684108 c 0,-3.565574 -1.45953,-6.984485 -4.05505,-9.506385 z"
   id="path161-8-0" /><path
   style="fill:#3a556a;stroke-width:0.999995"
   d="M 424.60512,107.4342 389.87827,73.702847 c -2.59551,-2.521122 -6.11534,-3.93804 -9.78614,-3.93804 H 49.840408 C 42.196029,69.764807 36,75.783219 36,83.208461 V 437.72442 c 0,7.42525 6.196029,13.44366 13.840408,13.44366 H 414.81898 c 7.64517,0 13.8412,-6.01841 13.8412,-13.44366 V 116.94059 c 0,-3.56558 -1.45952,-6.98449 -4.05506,-9.50639 z"
   id="path161" /><path
   style="fill:#4b6177;fill-opacity:1;stroke-width:0.999995"
   d="M 438.42767,93.09479 403.70083,59.363443 c -2.59552,-2.521123 -6.11535,-3.938045 -9.78615,-3.938045 H 63.662968 c -7.644385,0 -13.840411,6.018415 -13.840411,13.443653 V 423.38501 c 0,7.42526 6.196026,13.44365 13.840411,13.44365 H 428.64153 c 7.64517,0 13.8412,-6.0184 13.8412,-13.44365 V 102.60118 c 0,-3.565578 -1.45952,-6.984489 -4.05506,-9.50639 z"
   id="path161-8" />
<path
   style="fill:#64798a;stroke-width:0.999995"
   d="M 424.60512,107.4342 389.87827,73.702847 c -2.59551,-2.521122 -6.11534,-3.93804 -9.78614,-3.93804 H 49.840408 C 42.196029,69.764807 36,75.783219 36,83.208461 V 423.85554 c 0,7.42524 6.196029,13.44365 13.840408,13.44365 H 414.81898 c 7.64517,0 13.8412,-6.01841 13.8412,-13.44365 V 116.94059 c 0,-3.56558 -1.45952,-6.98449 -4.05506,-9.50639 z"
   id="path163" />
<ellipse
   style="fill:#3a556a;stroke-width:0.999995"
   cx="242.03581"
   cy="304.24094"
   id="circle165"
   rx="76.945686"
   ry="76.477745" />
<path
   style="fill:#d5d6db;stroke-width:0.999995"
   d="M 128.28938,79.845627 V 187.52158 c 0,6.30948 5.14419,11.4207 11.48892,11.4207 h 204.51502 c 6.34555,0 11.48807,-5.11206 11.48807,-11.4207 V 79.845627 Z"
   id="path167" />
<path
   style="fill:#ebf0f3;stroke-width:0.999995"
   d="M 128.28938,69.764807 V 177.44076 c 0,6.30946 5.14419,11.42071 11.48892,11.42071 h 204.51502 c 6.34555,0 11.48807,-5.11208 11.48807,-11.42071 V 69.764807 Z"
   id="path169" />
<rect
   x="299.94061"
   y="88.699051"
   style="fill:#64798a;stroke-width:0.999995"
   width="29.673817"
   height="81.230675"
   id="rect171" />
<ellipse
   style="fill:#ebf0f3;stroke-width:0.999995"
   cx="242.03581"
   cy="304.24094"
   id="circle173"
   rx="70.725883"
   ry="70.295753" />
<g
   id="g179"
   transform="matrix(0.83836183,0,0,0.83326331,36,69.764807)"
   style="stroke-width:1.19645">
	<path
   style="fill:#64798a;stroke-width:1.19645"
   d="m 252.074,269.819 h -12.631 c -2.904,0 -5.26,2.356 -5.26,5.262 v 12.631 c 0,2.903 2.356,5.26 5.26,5.26 h 12.631 c 2.906,0 5.263,-2.357 5.263,-5.26 v -12.631 c 0,-2.906 -2.357,-5.262 -5.263,-5.262 z"
   id="path175" />
	<path
   style="fill:#64798a;stroke-width:1.19645"
   d="m 306.566,256.71 h -17.182 c -3.95,0 -7.156,3.206 -7.156,7.159 v 35.056 c 0,3.95 3.206,7.155 7.156,7.155 h 17.182 c 3.954,0 7.159,-3.206 7.159,-7.155 v -35.056 c 10e-4,-3.953 -3.205,-7.159 -7.159,-7.159 z"
   id="path177" />
</g>
<path
   style="fill:#3a556a;stroke-width:0.999995"
   d="M 115.65528,383.96674 H 63.844511 c -2.60982,0 -4.725845,2.10315 -4.725845,4.69544 v 25.05289 c 0,2.59396 2.116025,4.6971 4.725845,4.6971 h 51.810769 c 2.61065,0 4.72751,-2.10314 4.72751,-4.6971 v -25.05289 c 0,-2.59229 -2.11686,-4.69544 -4.72751,-4.69544 z"
   id="path181" />
<path
   style="fill:#2f4859;stroke-width:0.999995"
   d="m 89.75073,414.68583 c -0.54242,0 -0.980883,-0.43663 -0.980883,-0.97492 v -25.04539 c 0,-0.53747 0.439302,-0.97409 0.980883,-0.97409 h 25.90455 c 0.54073,0 0.98004,0.43662 0.98004,0.97409 v 25.04539 c 0,0.53829 -0.43931,0.97492 -0.98004,0.97492 z"
   id="path183" />
</svg>
